<svg viewBox="0 0 267.875 138.282" height="138.282" width="267.875" xmlns="http://www.w3.org/2000/svg" role="img" aria-label="Fino Premium Touch">
  <defs>
    <style>
      .cls-1 {
        fill: #c2185b;
        fill-rule: evenodd;
      }
    </style>
  </defs>
  <path transform="translate(-897.125 -269.812)" d="M995.182,369.739v-55.67H952.689c3.175-11.422,7.642-36.877,20.175-41.649a10.073,10.073,0,0,1,11.092,2.778l1.616-1.336a13.117,13.117,0,0,0-8.943-4.051c-7.765-.2-15.2,2.237-22.718,10.12-8.011,8.4-11.109,17.707-15.456,34.138h-15.2v2.507H937.7c-7.2,28.436-13.747,58.988-20.555,74.627-4.145,9.531-11.038,13.4-13.9,14.316a14.839,14.839,0,0,1-5.284.725l-0.836,1.838c9.171,0.39,23.482-8.757,33.258-30.092,6.5-14.2,12.942-30.2,21.725-61.414h29.557v53.163H969.735v2.455h37.545v-2.455h-12.1Zm29.408-53.163h-11.77v-2.507h25.29v12.7h0.32c4.12-7.33,12.07-15.58,23.67-15.58,17.01,0,22.12,8.25,22.12,17.253v41.3h11.59v2.455h-37.24v-2.455h11.94v-45.1c0-9.285-4.28-10.8-9.36-10.8-13.35,0-19.7,12.852-23.04,18.475v37.426h12.08v2.455h-37.37v-2.455h11.77V316.576Zm106.74-6.587c20.49,0,33.67,14.4,33.67,31.971s-13.18,33.1-33.67,33.1-33.67-15.537-33.67-33.1S1110.84,309.989,1131.33,309.989Zm18.43,26.99c0-13.288-.64-24.559-18.43-24.559s-18.43,11.271-18.43,24.559V347.3c0,13.285.64,25.541,18.43,25.541s18.43-12.256,18.43-25.541V336.979Zm-198.134,53.9h-6.513v0.608h1.443v10.35h-1.443v0.609h6.3V401.84h-1.761v-4.5l1.758,0.056c2.866,0,4.947-1.409,4.947-3.351,0-2.1-1.593-3.165-4.732-3.165m-1.973.608h1.278c1.808,0,2.115.664,2.115,2.651,0,1.86-.84,2.652-2.807,2.652,0,0-.415-0.046-0.586-0.062V391.49Zm21.181,10.318c-0.515,0-.8,0-0.833-2.59-0.032-1.545-1.089-2.449-3.1-2.817,1.37-.227,3.345-0.864,3.345-2.721s-1.775-2.8-5.282-2.8h-5.748v0.608h1.443v10.35h-1.443v0.609h6.03V401.84h-1.492v-5.1h0.783c1.678,0.031,2.361.295,2.361,2.831,0,1.458.289,3.13,2.527,3.13a4.366,4.366,0,0,0,2.261-.57l0.118-.08-0.253-.491-0.719.244m-7.078-5.672V391.49h1.136c1.484,0,2.044.174,2.044,2.011,0.056,1.98-.451,2.547-2.353,2.635h-0.827Zm21.428,2.78A2.845,2.845,0,0,1,982,401.84h-2.4v-5.175h1.066a1.715,1.715,0,0,1,1.6,1.949v0.526h0.648v-5.366h-0.648v0.335c0,1.366-.477,1.948-1.6,1.948H979.6V391.49h1.937c2.173,0,3.145,1.262,3.145,2.507v0.385h0.645v-3.5H975.063v0.608h1.443v10.35h-1.443v0.609h10.766v-3.915h-0.645v0.382Zm15.636-8.034c-0.13.091-2.441,5.985-3.021,7.475-0.242-.628-2.862-7.475-2.862-7.475H990.11v0.608h1.352v9.137a1.024,1.024,0,0,1-1.207,1.213h-0.162l-0.071.162v0.447h3.772V401.84h-0.409c-0.833,0-1.172-.123-1.172-1.357v-8.29c0.486,1.24,3.972,10.153,3.972,10.153l0.63,0.1c0.13-.086,3.116-7.741,4.015-10.062v9.453H999.3v0.609h5.966V401.84h-1.34V391.49h1.34v-0.608h-4.45Zm8.36,0v0.608h1.43v10.35h-1.43v0.609h5.97V401.84h-1.44V391.49h1.44v-0.608h-5.97Zm18.42,0v0.608h0.68c0.77,0,1.03.3,1.03,1.181v6.068a2.829,2.829,0,0,1-3.02,3.069c-2.6,0-2.95-1.657-2.95-3.451V391.49h1.44v-0.608h-5.93v0.608h1.39v7.075c0,2.518,1.95,4.14,4.96,4.14,3.13,0,4.86-1.44,4.86-4.06v-5.974c0-1.036.37-1.181,0.76-1.181h0.63v-0.608h-3.85Zm17.88,0c-0.14.091-2.45,5.987-3.03,7.475-0.24-.622-2.86-7.475-2.86-7.475h-4.82v0.608h1.35v9.137a1.026,1.026,0,0,1-1.21,1.213h-0.16l-0.07.162v0.447h3.77V401.84h-0.41c-0.83,0-1.17-.123-1.17-1.357v-8.291c0.48,1.241,3.97,10.154,3.97,10.154l0.63,0.1c0.13-.086,3.12-7.741,4.02-10.062v9.453h-1.53v0.609h5.97V401.84h-1.34V391.49h1.34v-0.608h-4.45Zm13.53,0v3.82h0.62l0.02-.138c0.28-1.844.9-3.074,3.01-3.074h0.56v10.35h-1.65v0.609h6.41V401.84h-1.66V391.49h0.57c2.11,0,2.72,1.23,3.01,3.074l0.02,0.138h0.62v-3.82h-11.53Zm20.15-.258a5.873,5.873,0,0,0-5.82,6.041,6.016,6.016,0,0,0,1.76,4.265,5.531,5.531,0,0,0,8.12,0,5.98,5.98,0,0,0,1.76-4.268,5.866,5.866,0,0,0-5.82-6.038m0,0.611c1.21,0,2.51.42,2.51,5.43,0,4.112-.61,5.431-2.51,5.431s-2.51-1.319-2.51-5.431C1076.65,391.655,1077.95,391.235,1079.16,391.235Zm17.54-.353v0.608h0.67c0.77,0,1.03.3,1.03,1.181v6.068a2.829,2.829,0,0,1-3.02,3.069c-2.59,0-2.95-1.657-2.95-3.451V391.49h1.44v-0.608h-5.92v0.608h1.38v7.075c0,2.518,1.95,4.14,4.97,4.14,3.13,0,4.85-1.44,4.85-4.06v-5.974c0-1.036.37-1.181,0.77-1.181h0.62v-0.608h-3.84Zm16.27,8a3.994,3.994,0,0,1-3.72,3.21c-1.88,0-2.65-1.572-2.65-5.431,0-4.865,1.54-5.43,2.7-5.43,1.95,0,3.41,2.178,3.67,3.685l0.02,0.132h0.62v-4.088h-0.63l-0.01.151c-0.01.2-.09,0.329-0.43,0.329l-1.14-.317a6.006,6.006,0,0,0-2.1-.5,6.146,6.146,0,0,0-6.01,6.234,5.7,5.7,0,0,0,5.79,5.847,6.051,6.051,0,0,0,2.86-.682l0.63-.23a0.691,0.691,0,0,1,.51.541l0.04,0.115h0.54v-4.237h-0.56Zm18.5-7.4v-0.608h-5.98v0.608h1.44v4.567h-4.3V391.49h1.44v-0.608h-5.98v0.608h1.44v10.35h-1.44v0.609h5.98V401.84h-1.44v-5.175h4.3v5.175h-1.44v0.609h5.98V401.84h-1.44V391.49h1.44Z" class="cls-1" data-name="シェイプ 1787" id="シェイプ_1787"></path>
</svg>
