<svg xmlns="http://www.w3.org/2000/svg" viewBox="0 0 100 100" role="img" aria-label="Fino">
  <rect width="100" height="100" rx="22" fill="#c2185b"/>
  <svg x="11" y="30" width="78" height="40" viewBox="15 -3 253 122" preserveAspectRatio="xMidYMid meet">
    <path fill="#ffffff" transform="translate(-897.125 -269.812)" d="M995.182,369.739v-55.67H952.689c3.175-11.422,7.642-36.877,20.175-41.649a10.073,10.073,0,0,1,11.092,2.778l1.616-1.336a13.117,13.117,0,0,0-8.943-4.051c-7.765-.2-15.2,2.237-22.718,10.12-8.011,8.4-11.109,17.707-15.456,34.138h-15.2v2.507H937.7c-7.2,28.436-13.747,58.988-20.555,74.627-4.145,9.531-11.038,13.4-13.9,14.316a14.839,14.839,0,0,1-5.284.725l-0.836,1.838c9.171,0.39,23.482-8.757,33.258-30.092,6.5-14.2,12.942-30.2,21.725-61.414h29.557v53.163H969.735v2.455h37.545v-2.455h-12.1Zm29.408-53.163h-11.77v-2.507h25.29v12.7h0.32c4.12-7.33,12.07-15.58,23.67-15.58,17.01,0,22.12,8.25,22.12,17.253v41.3h11.59v2.455h-37.24v-2.455h11.94v-45.1c0-9.285-4.28-10.8-9.36-10.8-13.35,0-19.7,12.852-23.04,18.475v37.426h12.08v2.455h-37.37v-2.455h11.77V316.576Zm106.74-6.587c20.49,0,33.67,14.4,33.67,31.971s-13.18,33.1-33.67,33.1-33.67-15.537-33.67-33.1S1110.84,309.989,1131.33,309.989Zm18.43,26.99c0-13.288-.64-24.559-18.43-24.559s-18.43,11.271-18.43,24.559V347.3c0,13.285.64,25.541,18.43,25.541s18.43-12.256,18.43-25.541V336.979Z" class="cls-1"></path>
  </svg>
</svg>
